<svg width="24" height="20" viewBox="0 0 24 20" fill="none" xmlns="http://www.w3.org/2000/svg">
<path fill-rule="evenodd" clip-rule="evenodd" d="M22.425 2.80667L12.9555 11.52C12.6864 11.7677 12.3479 11.9033 11.9985 11.9033C11.6491 11.9033 11.3106 11.7677 11.0415 11.52L1.5765 2.80667C1.52571 2.97652 1.49988 3.15435 1.5 3.33333V16.6667C1.5 17.1087 1.65804 17.5326 1.93934 17.8452C2.22064 18.1577 2.60218 18.3333 3 18.3333H21C21.3978 18.3333 21.7794 18.1577 22.0607 17.8452C22.342 17.5326 22.5 17.1087 22.5 16.6667V3.33333C22.5006 3.15444 22.4753 2.97661 22.425 2.80667ZM3 0H21C21.7956 0 22.5587 0.351189 23.1213 0.976311C23.6839 1.60143 24 2.44928 24 3.33333V16.6667C24 17.5507 23.6839 18.3986 23.1213 19.0237C22.5587 19.6488 21.7956 20 21 20H3C2.20435 20 1.44129 19.6488 0.87868 19.0237C0.316071 18.3986 0 17.5507 0 16.6667V3.33333C0 2.44928 0.316071 1.60143 0.87868 0.976311C1.44129 0.351189 2.20435 0 3 0ZM2.685 1.66667L11.049 9.33833C11.3169 9.58418 11.6533 9.71907 12.0007 9.71998C12.3481 9.72089 12.6851 9.58777 12.954 9.34333L21.402 1.66667H2.685Z" fill="#FF9700"/>
</svg>
