<svg width="114" height="114" viewBox="0 0 114 114" fill="none" xmlns="http://www.w3.org/2000/svg">
<path fill-rule="evenodd" clip-rule="evenodd" d="M113.062 5.30234L109.977 4.81172L109.168 1.79297L113.821 0.542969L113.062 5.30234ZM71.7492 48.5211L69.0898 50.1586L69.0836 50.1523L69.0742 50.1367L69.043 50.0867L68.9367 49.9086L68.5617 49.2617C68.1243 48.4963 67.7023 47.7222 67.2961 46.9398C66.0096 44.4807 64.8884 41.9386 63.9398 39.3305C62.8836 36.3805 61.9773 33.0023 61.8367 29.7336C61.6992 26.4773 62.3055 22.943 64.7305 20.1711C66.9086 17.6836 71.0148 15.393 75.3305 13.4117C79.8023 11.3523 85.0648 9.37734 90.0492 7.66797C96.2233 5.55988 102.459 3.63817 108.749 1.90547L109.062 1.81797L109.171 1.78672L109.984 4.80859L113.068 5.29922L113.049 5.41484L112.996 5.74609C112.684 7.66323 112.357 9.57788 112.015 11.4898C111.182 16.1917 110.274 20.8798 109.29 25.5523C108.177 30.8055 106.884 36.3117 105.512 40.9211C104.901 43.0286 104.184 45.1041 103.365 47.1398C102.652 48.8586 101.809 50.5273 100.784 51.7023C98.5899 54.2086 95.1742 54.993 92.1898 55.193C89.0773 55.4023 85.6273 55.0242 82.5242 54.4742C79.7567 53.9761 77.0157 53.3398 74.3117 52.568C73.2053 52.2563 72.105 51.9229 71.0117 51.568L70.8148 51.4992L70.7617 51.4805L70.7461 51.4773H70.7398L71.7492 48.5211ZM71.7492 48.5211L69.0898 50.1586L69.6773 51.1117L70.7398 51.4773L71.7492 48.5211ZM73.8492 45.918C77.0496 46.913 80.3064 47.7166 83.6023 48.3242C86.4898 48.8336 89.3773 49.1211 91.7711 48.9586C94.2992 48.7898 95.568 48.1711 96.0773 47.5898C96.4023 47.2148 96.9336 46.3273 97.5898 44.7461C98.3254 42.9116 98.9689 41.0416 99.518 39.143C100.821 34.768 102.074 29.4461 103.174 24.2617C104.23 19.2459 105.197 14.2118 106.074 9.16172L105.109 9.44297C101.643 10.4648 96.9617 11.9055 92.0773 13.5805C87.1836 15.2586 82.143 17.1555 77.9398 19.0898C73.5773 21.0961 70.6336 22.918 69.4336 24.2898C68.4742 25.3836 67.9805 27.068 68.0836 29.4648C68.1836 31.8492 68.868 34.5586 69.8242 37.218C70.9159 40.2272 72.2624 43.1378 73.8492 45.918ZM14.0711 13.168L13.2617 16.1867L10.1742 16.6773L9.41797 11.9211L14.0711 13.168ZM44.3273 51.7086L46.9867 53.343L46.993 53.3367L46.9992 53.3242L47.0242 53.2836L47.1148 53.1336L47.4273 52.6023C48.9218 49.9928 50.192 47.2611 51.2242 44.4367C52.093 42.0117 52.8492 39.2023 52.9648 36.4648C53.0836 33.7367 52.5773 30.693 50.4711 28.2867C48.6086 26.1555 45.1617 24.2555 41.6617 22.643C38.0023 20.9586 33.7055 19.3461 29.6461 17.9555C24.6181 16.24 19.5398 14.6758 14.418 13.2648L14.1617 13.193L14.0711 13.168L13.2617 16.1867L10.1742 16.6773L10.1898 16.7711L10.2336 17.043L10.4023 18.0617C11.2453 23.1165 12.1945 28.1531 13.2492 33.168C14.1555 37.443 15.2117 41.9336 16.3305 45.6992C16.893 47.5805 17.4805 49.3336 18.0961 50.8117C18.6805 52.218 19.3961 53.6523 20.2961 54.6773C22.2336 56.8961 25.2117 57.5523 27.6773 57.7148C30.2773 57.8898 33.1305 57.5742 35.6773 57.1273C38.8756 56.5555 42.0294 55.7577 45.1148 54.7398L45.2742 54.6867L45.3211 54.6711L45.3367 54.6648L44.3273 51.7086ZM44.3273 51.7086L46.9867 53.343L46.3992 54.2992L45.3367 54.6648L44.3273 51.7086ZM42.2242 49.1023C42.4221 48.7482 42.6534 48.318 42.918 47.8117C43.6617 46.3805 44.5867 44.4305 45.3398 42.3242C46.1055 40.193 46.643 38.0523 46.7211 36.1992C46.8023 34.3273 46.4086 33.1367 45.768 32.3992C44.8836 31.393 42.6023 29.9555 39.0492 28.3211C35.6617 26.7617 31.5867 25.2273 27.618 23.868C24.1608 22.6874 20.6787 21.5809 17.1742 20.5492L17.1867 20.6273C17.718 23.6273 18.4742 27.6773 19.3648 31.8742C20.2555 36.0805 21.2711 40.3836 22.3211 43.918C22.8492 45.6867 23.368 47.2148 23.868 48.4148C24.3992 49.6867 24.7992 50.3336 24.9992 50.5648C25.2555 50.8555 26.0836 51.3461 28.0961 51.4805C29.9742 51.6055 32.268 51.3805 34.593 50.9711C37.1735 50.5078 39.7222 49.8857 42.2242 49.1023ZM35.3805 78.893C34.5867 78.9367 34.1992 79.0492 34.0992 79.093C32.6836 79.7336 28.3836 81.2336 24.6711 82.4992C22.7648 83.1523 20.9367 83.7648 19.5867 84.218L19.4992 84.2492V101.134C20.0492 101.109 20.6398 101.087 21.243 101.065C23.8305 100.971 26.9086 100.877 28.243 100.934C33.843 101.155 38.0492 102.48 41.943 103.709L42.0273 103.737C45.6773 104.887 49.0586 105.943 53.4867 106.277C54.7367 106.371 55.9523 106.493 57.0867 106.605H57.1023C61.4586 107.043 64.3273 107.262 66.5492 106.455C68.2773 105.827 74.6055 102.893 80.9867 99.6836C84.143 98.0961 87.2367 96.4805 89.6961 95.0961C90.9305 94.4024 91.9773 93.7836 92.7805 93.2648C93.1784 93.0065 93.4992 92.7878 93.743 92.6086L94.0242 92.3898L94.1117 92.3148C94.4242 91.9992 94.7555 90.8992 94.218 89.8648C93.965 89.3811 93.547 89.0042 93.0398 88.8023C92.4148 88.5305 91.3523 88.3211 89.6648 88.5992C85.8586 89.2242 81.3117 91.0555 76.7711 92.9023L76.7086 92.9305C74.4773 93.8367 72.2398 94.7461 70.2555 95.4086C68.3492 96.043 66.2336 96.6117 64.3898 96.5023C61.8586 96.3461 57.418 95.6898 53.7555 95.0961C51.6507 94.7558 49.5486 94.3995 47.4492 94.0273L47.043 93.9555L46.8992 93.9273L47.493 87.7273L61.7742 87.8992H61.8055C61.9723 87.8813 62.1374 87.8499 62.2992 87.8055C62.793 87.6805 63.6398 87.3711 64.7055 86.618C65.0336 86.3836 65.4648 85.9523 65.868 85.3742C66.0346 85.1326 66.1763 84.8971 66.293 84.668C64.5519 84.5559 62.8219 84.3114 61.118 83.9367C60.1902 83.7347 59.2699 83.5001 58.3586 83.2336L58.2523 83.2023L40.7617 79.3086L40.5961 79.2805L39.9398 79.1805C39.2251 79.0754 38.507 78.9951 37.7867 78.9398C36.9865 78.8727 36.1827 78.857 35.3805 78.893ZM41.3742 76.2492L41.9398 73.1773L41.9961 73.1867L59.8648 77.1617L59.9961 77.2023L60.0211 77.2117L60.1398 77.2461L60.6336 77.3867C61.068 77.5055 61.693 77.668 62.4367 77.8305C63.9555 78.1586 65.8555 78.4617 67.6117 78.4617C69.3711 78.4617 71.2836 79.118 72.3148 80.9867C73.1961 82.5867 72.9773 84.318 72.668 85.4617C72.3801 86.4727 71.952 87.4383 71.3961 88.3305C72.3482 87.9555 73.3544 87.5513 74.4148 87.118L74.6086 87.0367C78.9148 85.2867 84.0773 83.1867 88.6492 82.4336C93.9617 81.5648 97.9461 83.4711 99.768 86.9961C101.374 90.1055 101.018 94.2055 98.5648 96.6992C97.9492 97.3242 97.0336 97.9586 96.1586 98.5242C95.044 99.2292 93.9103 99.9035 92.7586 100.546C90.1805 101.996 86.9899 103.662 83.7898 105.271C77.4711 108.449 70.8148 111.559 68.6773 112.334C64.9711 113.677 60.6836 113.249 56.8742 112.868L56.4773 112.827C55.3245 112.709 54.1702 112.605 53.0148 112.515C47.8273 112.121 43.8523 110.868 40.2211 109.724L40.143 109.699C36.2367 108.468 32.718 107.371 27.993 107.18C26.9555 107.14 24.1617 107.215 21.468 107.315C19.951 107.37 18.4344 107.431 16.918 107.499L16.5148 107.518L13.2461 107.668V79.743L15.9867 78.8336C18.2105 78.0946 20.4314 77.3466 22.6492 76.5898C26.5367 75.2617 30.4555 73.8836 31.5242 73.4023C32.6711 72.8836 33.9742 72.7148 35.018 72.6523C36.1273 72.5898 37.268 72.6367 38.2648 72.7117C39.4646 72.8075 40.6595 72.9567 41.8461 73.1586L41.9117 73.1711H41.9305L41.9367 73.1742H41.943L41.3742 76.2492Z" fill="white"/>
<path fill-rule="evenodd" clip-rule="evenodd" d="M91.8432 23.3747C92.1551 23.6415 92.4114 23.967 92.5975 24.3328C92.7836 24.6986 92.8957 25.0975 92.9277 25.5067C92.9596 25.9158 92.9106 26.3273 92.7835 26.7175C92.6564 27.1077 92.4537 27.4691 92.1869 27.781C82.8713 38.6497 71.2744 54.5779 66.1557 67.5247C66.0047 67.9064 65.7799 68.2546 65.4944 68.5494C65.2088 68.8442 64.8679 69.0799 64.4913 69.2429C64.1146 69.406 63.7095 69.4933 63.2991 69.4999C62.8887 69.5064 62.4811 69.432 62.0994 69.281C61.7178 69.13 61.3696 68.9053 61.0748 68.6197C60.78 68.3341 60.5443 67.9933 60.3812 67.6166C60.2181 67.2399 60.1308 66.8349 60.1243 66.4245C60.1178 66.0141 60.1921 65.6064 60.3432 65.2247C65.8525 51.2904 78.0025 34.7247 87.4369 23.7154C87.9765 23.0864 88.7438 22.6974 89.5701 22.6341C90.3965 22.5708 91.2141 22.8384 91.8432 23.3779M30.0619 33.3997C29.7397 33.6541 29.4707 33.9695 29.2704 34.3278C29.07 34.6862 28.9423 35.0805 28.8944 35.4882C28.8465 35.896 28.8794 36.3091 28.9913 36.7042C29.1031 37.0992 29.2917 37.4683 29.5463 37.7904C36.5525 46.681 44.2025 58.0591 47.8338 67.4966C48.1456 68.2499 48.7393 68.8515 49.4884 69.1731C50.2375 69.4947 51.0826 69.5108 51.8435 69.2181C52.6043 68.9253 53.2206 68.3469 53.5609 67.6061C53.9013 66.8653 53.9386 66.0208 53.665 65.2529C49.6932 54.9279 41.5775 42.956 34.4525 33.9216C33.9398 33.2708 33.1896 32.8502 32.3668 32.7523C31.5441 32.6544 30.713 32.8873 30.0619 33.3997Z" fill="white"/>
<path d="M0.75 72.625H19.5V113.25H0.75V72.625Z" fill="white"/>
</svg>
