<svg width="100" height="100" viewBox="0 0 100 100" fill="none" xmlns="http://www.w3.org/2000/svg">
<path d="M84.375 41.665C84.375 40.9811 84.2403 40.3038 83.9786 39.6719C83.7168 39.04 83.3332 38.4658 82.8495 37.9822C82.3659 37.4985 81.7917 37.1149 81.1598 36.8532C80.5279 36.5914 79.8507 36.4567 79.1667 36.4567C78.4827 36.4567 77.8055 36.5914 77.1736 36.8532C76.5417 37.1149 75.9675 37.4985 75.4838 37.9822C75.0002 38.4658 74.6166 39.04 74.3548 39.6719C74.0931 40.3038 73.9584 40.9811 73.9584 41.665H84.375ZM26.0417 41.665C26.0417 40.2837 25.493 38.9589 24.5162 37.9822C23.5395 37.0054 22.2147 36.4567 20.8334 36.4567C19.452 36.4567 18.1273 37.0054 17.1505 37.9822C16.1738 38.9589 15.625 40.2837 15.625 41.665H26.0417ZM83.8167 53.6817C84.7936 54.6586 86.1185 55.2074 87.5 55.2074C88.8815 55.2074 90.2065 54.6586 91.1834 53.6817C92.1602 52.7048 92.709 51.3799 92.709 49.9984C92.709 48.6168 92.1602 47.2919 91.1834 46.315L83.8167 53.6817ZM50 12.4984L53.6834 8.81503C53.1997 8.33125 52.6255 7.94748 51.9935 7.68565C51.3615 7.42383 50.6841 7.28906 50 7.28906C49.316 7.28906 48.6386 7.42383 48.0066 7.68565C47.3746 7.94748 46.8004 8.33125 46.3167 8.81503L50 12.4984ZM8.8167 46.315C7.83982 47.2919 7.29102 48.6168 7.29102 49.9984C7.29102 51.3799 7.83982 52.7048 8.8167 53.6817C9.79358 54.6586 11.1185 55.2074 12.5 55.2074C13.8816 55.2074 15.2065 54.6586 16.1834 53.6817L8.8167 46.315ZM29.1667 92.7067H70.8334V82.29H29.1667V92.7067ZM84.375 79.165V41.665H73.9584V79.165H84.375ZM26.0417 79.165V41.665H15.625V79.165H26.0417ZM91.1834 46.315L53.6834 8.81503L46.3167 16.1817L83.8167 53.6817L91.1834 46.315ZM46.3167 8.81503L8.8167 46.315L16.1834 53.6817L53.6834 16.1817L46.3167 8.81503ZM70.8334 92.7067C74.4248 92.7067 77.8692 91.28 80.4088 88.7404C82.9483 86.2009 84.375 82.7565 84.375 79.165H73.9584C73.9584 79.9938 73.6291 80.7887 73.0431 81.3747C72.457 81.9608 71.6622 82.29 70.8334 82.29V92.7067ZM29.1667 82.29C28.3379 82.29 27.543 81.9608 26.957 81.3747C26.3709 80.7887 26.0417 79.9938 26.0417 79.165H15.625C15.625 82.7565 17.0517 86.2009 19.5913 88.7404C22.1309 91.28 25.5752 92.7067 29.1667 92.7067V82.29Z" fill="white"/>
</svg>
