<svg width="150" height="150" viewBox="0 0 150 150" fill="none" xmlns="http://www.w3.org/2000/svg">
<path d="M119.45 65.625C118.454 65.625 115.117 65.6543 114.177 65.7129L95.1629 66.2109C95.064 66.217 94.9655 66.1956 94.8781 66.149C94.7907 66.1025 94.7179 66.0327 94.6677 65.9473L56.7049 19.793C56.4746 19.4882 56.1808 19.237 55.8439 19.0569C55.5071 18.8769 55.135 18.7721 54.7537 18.75H46.8758L68.2625 65.918C68.3135 66.0259 68.3355 66.1453 68.3265 66.2644C68.3174 66.3835 68.2775 66.4981 68.2107 66.5971C68.1439 66.6961 68.0525 66.776 67.9455 66.829C67.8385 66.882 67.7196 66.9063 67.6004 66.8994L31.949 67.4268C31.578 67.438 31.2096 67.3616 30.8736 67.2038C30.5377 67.046 30.2436 66.8113 30.0154 66.5186L19.1756 53.335C18.2966 52.1924 16.6502 51.5771 15.2175 51.5771H9.69216C9.31423 51.5771 9.36989 51.9316 9.47243 52.2891L15.2849 73.2129C15.7243 74.3335 15.7243 75.5786 15.2849 76.6992L9.46657 97.5586C9.29372 98.1299 9.31423 98.4375 9.98513 98.4375H15.2351C17.6199 98.4375 17.9451 98.127 19.1638 96.5918L30.2088 83.2031C30.439 82.9127 30.7334 82.6795 31.0689 82.522C31.4044 82.3644 31.7718 82.2867 32.1424 82.2949L67.4978 83.0859C67.6266 83.0889 67.7526 83.1232 67.8651 83.1859C67.9775 83.2486 68.073 83.3378 68.1431 83.4458C68.2133 83.5537 68.256 83.6772 68.2676 83.8055C68.2792 83.9337 68.2594 84.0628 68.2097 84.1816L46.8758 131.25H54.6804C55.0611 131.228 55.4323 131.123 55.7687 130.944C56.105 130.764 56.3984 130.514 56.6287 130.21L94.6707 84.082C94.7849 83.9062 95.2566 83.8184 95.4588 83.8184L114.179 84.3164C115.146 84.375 118.454 84.4043 119.453 84.4043C132.423 84.4043 140.626 80.8389 140.626 75C140.626 69.1611 132.458 65.625 119.45 65.625Z" stroke="white" stroke-width="9.375" stroke-linecap="round" stroke-linejoin="round"/>
</svg>
