<svg width="152" height="124" viewBox="0 0 152 124" fill="none" xmlns="http://www.w3.org/2000/svg">
<path d="M71.25 36.8125C56.1955 39.7696 43.2992 49.4813 35.5359 54.5963C33.2963 52.9034 30.936 51.32 28.4673 49.8543C17.673 43.4218 4.75 42.625 4.75 42.625C4.75 42.625 8.12547 55.1049 17.0288 61.9588C8.12547 68.8152 4.75 81.2951 4.75 81.2951C4.75 81.2951 17.673 80.4983 28.4673 74.0658C30.9151 72.6128 33.2556 71.0431 35.4766 69.3649C43.225 74.4848 56.1806 84.2207 71.25 87.1875L66.5 100.75C78.2058 99.1346 89.9116 92.1499 94.62 89.0645C133 87.6719 147.25 67.5703 147.25 62C147.25 56.6719 133 36.3281 94.7358 34.9404C90.1075 31.9155 78.3037 24.8775 66.5 23.25L71.25 36.8125Z" stroke="white" stroke-width="9.5" stroke-linejoin="round"/>
<path d="M123.5 61.9961C126.123 61.9961 128.25 60.2612 128.25 58.1211C128.25 55.981 126.123 54.2461 123.5 54.2461C120.877 54.2461 118.75 55.981 118.75 58.1211C118.75 60.2612 120.877 61.9961 123.5 61.9961Z" fill="white"/>
<path d="M112.329 86.2188C107.095 78.8616 104.338 70.5064 104.338 62C104.338 53.4936 107.095 45.1384 112.329 37.7812" stroke="white" stroke-width="9.5" stroke-miterlimit="20" stroke-linecap="round"/>
</svg>
