<svg width="150" height="150" viewBox="0 0 150 150" fill="none" xmlns="http://www.w3.org/2000/svg">
<g clip-path="url(#clip0_190_6078)">
<path d="M137.5 78.125C137.5 78.125 150 91.6875 150 100C150 103.315 148.683 106.495 146.339 108.839C143.995 111.183 140.815 112.5 137.5 112.5C134.185 112.5 131.005 111.183 128.661 108.839C126.317 106.495 125 103.315 125 100C125 91.6875 137.5 78.125 137.5 78.125ZM37.5 37.5H62.5C64.1576 37.5 65.7473 38.1585 66.9194 39.3306C68.0915 40.5027 68.75 42.0924 68.75 43.75C68.75 45.4076 68.0915 46.9973 66.9194 48.1694C65.7473 49.3415 64.1576 50 62.5 50H56.25V62.5H68.75C73.375 62.5 77.4375 65 79.5625 68.75L120.25 45.25L140.625 57.0625C143.75 58.75 144.625 62.5 142.938 65.625C141.188 68.5625 137.5 69.625 134.375 67.875L121.25 60.3125L98.4375 99.8125C96.3125 103.625 92.1875 106.25 87.5 106.25H31.25C27.9348 106.25 24.7554 104.933 22.4112 102.589C20.067 100.245 18.75 97.0652 18.75 93.75V75C18.75 71.6848 20.067 68.5054 22.4112 66.1612C24.7554 63.817 27.9348 62.5 31.25 62.5H43.75V50H37.5C35.8424 50 34.2527 49.3415 33.0806 48.1694C31.9085 46.9973 31.25 45.4076 31.25 43.75C31.25 42.0924 31.9085 40.5027 33.0806 39.3306C34.2527 38.1585 35.8424 37.5 37.5 37.5ZM31.25 75V93.75H87.5L100.375 71.4375L78.75 83.9375L73.0625 75H31.25ZM2.375 57.5625L13.0625 46.875C15.625 44.4375 19.4375 44.4375 21.875 46.875C24.3125 49.3125 24.3125 53.125 21.875 55.6875L11.1875 66.375C8.75 68.75 4.8125 68.75 2.375 66.375C0 63.9375 0 60 2.375 57.5625Z" fill="white"/>
</g>
<defs>
<clipPath id="clip0_190_6078">
<rect width="150" height="150" fill="white"/>
</clipPath>
</defs>
</svg>
