<svg width="134" height="139" viewBox="0 0 134 139" fill="none" xmlns="http://www.w3.org/2000/svg">
<path fill-rule="evenodd" clip-rule="evenodd" d="M84.7071 5.40402C84.7071 3.98322 85.2716 2.6206 86.2762 1.61595C87.2809 0.611286 88.6435 0.046875 90.0643 0.046875H107.475C108.896 0.046875 110.258 0.611286 111.263 1.61595C112.268 2.6206 112.832 3.98322 112.832 5.40402V20.479H127.896C129.317 20.479 130.68 21.0434 131.684 22.0481C132.689 23.0527 133.254 24.4154 133.254 25.8362V43.2469C133.254 44.6677 132.689 46.0303 131.684 47.0349C130.68 48.0396 129.317 48.604 127.896 48.604H112.832V63.6683C112.832 65.0891 112.268 66.4517 111.263 67.4564C110.258 68.461 108.896 69.0254 107.475 69.0254H90.0643C88.6435 69.0254 87.2809 68.461 86.2762 67.4564C85.2716 66.4517 84.7071 65.0891 84.7071 63.6683V48.604H69.6429C68.2221 48.604 66.8594 48.0396 65.8548 47.0349C64.8501 46.0303 64.2857 44.6677 64.2857 43.2469V25.8362C64.2857 24.4154 64.8501 23.0527 65.8548 22.0481C66.8594 21.0434 68.2221 20.479 69.6429 20.479H84.7071V5.40402ZM19.7464 64.0004H0V106.858L19.5857 126.443C23.5657 130.425 28.2911 133.583 33.4919 135.737C38.6927 137.892 44.267 139.001 49.8964 139H112.5C116.762 139 120.85 137.307 123.864 134.293C126.878 131.279 128.571 127.191 128.571 122.929C128.571 118.667 126.878 114.579 123.864 111.565C120.85 108.551 116.762 106.858 112.5 106.858H82.7464C81.6326 110.614 79.5617 114.016 76.7369 116.73C73.9121 119.445 70.4304 121.379 66.633 122.343C62.8357 123.306 58.8531 123.266 55.0757 122.227C51.2983 121.188 47.8558 119.185 45.0857 116.415L29.55 100.879C28.9281 100.257 28.4348 99.5188 28.0982 98.7062C27.7616 97.8937 27.5884 97.0228 27.5884 96.1433C27.5884 95.2638 27.7616 94.3929 28.0982 93.5804C28.4348 92.7678 28.9281 92.0295 29.55 91.4076C30.1719 90.7857 30.9102 90.2924 31.7228 89.9558C32.5353 89.6192 33.4062 89.446 34.2857 89.446C35.1652 89.446 36.0361 89.6192 36.8487 89.9558C37.6612 90.2924 38.3995 90.7857 39.0214 91.4076L54.5571 106.943C56.1936 108.576 58.384 109.534 60.6939 109.627C63.0038 109.721 65.2643 108.942 67.027 107.447C68.7897 105.951 69.9258 103.847 70.2099 101.553C70.494 99.2588 69.9053 96.9416 68.5607 95.0612L50.0571 76.5576C46.0771 72.5764 41.3518 69.4183 36.151 67.2637C30.9502 65.1091 25.3759 64.0002 19.7464 64.0004Z" fill="white"/>
</svg>
