<svg width="25" height="26" viewBox="0 0 25 26" fill="none" xmlns="http://www.w3.org/2000/svg">
<path d="M22.3977 4.9668H20.1408V6.35569H22.2241V21.6335H2.77969V6.35569H4.86303V4.9668H2.60608C2.44375 4.96951 2.28354 5.00418 2.1346 5.06882C1.98566 5.13346 1.85092 5.2268 1.73807 5.34353C1.62521 5.46025 1.53646 5.59806 1.47688 5.74909C1.41729 5.90012 1.38804 6.06141 1.3908 6.22374V21.7654C1.38804 21.9277 1.41729 22.089 1.47688 22.2401C1.53646 22.3911 1.62521 22.5289 1.73807 22.6456C1.85092 22.7623 1.98566 22.8557 2.1346 22.9203C2.28354 22.985 2.44375 23.0196 2.60608 23.0224H22.3977C22.5601 23.0196 22.7203 22.985 22.8692 22.9203C23.0182 22.8557 23.1529 22.7623 23.2658 22.6456C23.3786 22.5289 23.4674 22.3911 23.527 22.2401C23.5865 22.089 23.6158 21.9277 23.613 21.7654V6.22374C23.6158 6.06141 23.5865 5.90012 23.527 5.74909C23.4674 5.59806 23.3786 5.46025 23.2658 5.34353C23.1529 5.2268 23.0182 5.13346 22.8692 5.06882C22.7203 5.00418 22.5601 4.96951 22.3977 4.9668Z" fill="#FF8200"/>
<path d="M5.55469 10.5234H6.94358V11.9123H5.55469V10.5234Z" fill="#FF8200"/>
<path d="M9.72266 10.5234H11.1115V11.9123H9.72266V10.5234Z" fill="#FF8200"/>
<path d="M13.8906 10.5234H15.2795V11.9123H13.8906V10.5234Z" fill="#FF8200"/>
<path d="M18.0547 10.5234H19.4436V11.9123H18.0547V10.5234Z" fill="#FF8200"/>
<path d="M5.55469 13.9961H6.94358V15.385H5.55469V13.9961Z" fill="#FF8200"/>
<path d="M9.72266 13.9961H11.1115V15.385H9.72266V13.9961Z" fill="#FF8200"/>
<path d="M13.8906 13.9961H15.2795V15.385H13.8906V13.9961Z" fill="#FF8200"/>
<path d="M18.0547 13.9961H19.4436V15.385H18.0547V13.9961Z" fill="#FF8200"/>
<path d="M5.55469 17.4668H6.94358V18.8557H5.55469V17.4668Z" fill="#FF8200"/>
<path d="M9.72266 17.4668H11.1115V18.8557H9.72266V17.4668Z" fill="#FF8200"/>
<path d="M13.8906 17.4668H15.2795V18.8557H13.8906V17.4668Z" fill="#FF8200"/>
<path d="M18.0547 17.4668H19.4436V18.8557H18.0547V17.4668Z" fill="#FF8200"/>
<path d="M6.94444 7.74501C7.12862 7.74501 7.30526 7.67184 7.43549 7.54161C7.56572 7.41138 7.63889 7.23474 7.63889 7.05056V2.8839C7.63889 2.69972 7.56572 2.52308 7.43549 2.39285C7.30526 2.26262 7.12862 2.18945 6.94444 2.18945C6.76027 2.18945 6.58363 2.26262 6.4534 2.39285C6.32316 2.52308 6.25 2.69972 6.25 2.8839V7.05056C6.25 7.23474 6.32316 7.41138 6.4534 7.54161C6.58363 7.67184 6.76027 7.74501 6.94444 7.74501Z" fill="#FF8200"/>
<path d="M18.0538 7.74501C18.238 7.74501 18.4146 7.67184 18.5449 7.54161C18.6751 7.41138 18.7483 7.23474 18.7483 7.05056V2.8839C18.7483 2.69972 18.6751 2.52308 18.5449 2.39285C18.4146 2.26262 18.238 2.18945 18.0538 2.18945C17.8696 2.18945 17.693 2.26262 17.5628 2.39285C17.4325 2.52308 17.3594 2.69972 17.3594 2.8839V7.05056C17.3594 7.23474 17.4325 7.41138 17.5628 7.54161C17.693 7.67184 17.8696 7.74501 18.0538 7.74501Z" fill="#FF8200"/>
<path d="M9.02734 4.9668H15.9718V6.35569H9.02734V4.9668Z" fill="#FF8200"/>
</svg>
