<svg width="32" height="32" viewBox="0 0 32 32" fill="none" xmlns="http://www.w3.org/2000/svg">
<path d="M6.66667 29.3327C5.93333 29.3327 5.30556 29.0716 4.78333 28.5494C4.26111 28.0271 4 27.3994 4 26.666V7.99935C4 7.26602 4.26111 6.63824 4.78333 6.11602C5.30556 5.59379 5.93333 5.33268 6.66667 5.33268H8V2.66602H10.6667V5.33268H21.3333V2.66602H24V5.33268H25.3333C26.0667 5.33268 26.6944 5.59379 27.2167 6.11602C27.7389 6.63824 28 7.26602 28 7.99935V26.666C28 27.3994 27.7389 28.0271 27.2167 28.5494C26.6944 29.0716 26.0667 29.3327 25.3333 29.3327H6.66667ZM6.66667 26.666H25.3333V13.3327H6.66667V26.666ZM6.66667 10.666H25.3333V7.99935H6.66667V10.666ZM16 18.666C15.6222 18.666 15.3056 18.5382 15.05 18.2827C14.7944 18.0271 14.6667 17.7105 14.6667 17.3327C14.6667 16.9549 14.7944 16.6382 15.05 16.3827C15.3056 16.1271 15.6222 15.9993 16 15.9993C16.3778 15.9993 16.6944 16.1271 16.95 16.3827C17.2056 16.6382 17.3333 16.9549 17.3333 17.3327C17.3333 17.7105 17.2056 18.0271 16.95 18.2827C16.6944 18.5382 16.3778 18.666 16 18.666ZM10.6667 18.666C10.2889 18.666 9.97222 18.5382 9.71667 18.2827C9.46111 18.0271 9.33333 17.7105 9.33333 17.3327C9.33333 16.9549 9.46111 16.6382 9.71667 16.3827C9.97222 16.1271 10.2889 15.9993 10.6667 15.9993C11.0444 15.9993 11.3611 16.1271 11.6167 16.3827C11.8722 16.6382 12 16.9549 12 17.3327C12 17.7105 11.8722 18.0271 11.6167 18.2827C11.3611 18.5382 11.0444 18.666 10.6667 18.666ZM21.3333 18.666C20.9556 18.666 20.6389 18.5382 20.3833 18.2827C20.1278 18.0271 20 17.7105 20 17.3327C20 16.9549 20.1278 16.6382 20.3833 16.3827C20.6389 16.1271 20.9556 15.9993 21.3333 15.9993C21.7111 15.9993 22.0278 16.1271 22.2833 16.3827C22.5389 16.6382 22.6667 16.9549 22.6667 17.3327C22.6667 17.7105 22.5389 18.0271 22.2833 18.2827C22.0278 18.5382 21.7111 18.666 21.3333 18.666ZM16 23.9994C15.6222 23.9994 15.3056 23.8716 15.05 23.616C14.7944 23.3605 14.6667 23.0438 14.6667 22.666C14.6667 22.2882 14.7944 21.9716 15.05 21.716C15.3056 21.4605 15.6222 21.3327 16 21.3327C16.3778 21.3327 16.6944 21.4605 16.95 21.716C17.2056 21.9716 17.3333 22.2882 17.3333 22.666C17.3333 23.0438 17.2056 23.3605 16.95 23.616C16.6944 23.8716 16.3778 23.9994 16 23.9994ZM10.6667 23.9994C10.2889 23.9994 9.97222 23.8716 9.71667 23.616C9.46111 23.3605 9.33333 23.0438 9.33333 22.666C9.33333 22.2882 9.46111 21.9716 9.71667 21.716C9.97222 21.4605 10.2889 21.3327 10.6667 21.3327C11.0444 21.3327 11.3611 21.4605 11.6167 21.716C11.8722 21.9716 12 22.2882 12 22.666C12 23.0438 11.8722 23.3605 11.6167 23.616C11.3611 23.8716 11.0444 23.9994 10.6667 23.9994ZM21.3333 23.9994C20.9556 23.9994 20.6389 23.8716 20.3833 23.616C20.1278 23.3605 20 23.0438 20 22.666C20 22.2882 20.1278 21.9716 20.3833 21.716C20.6389 21.4605 20.9556 21.3327 21.3333 21.3327C21.7111 21.3327 22.0278 21.4605 22.2833 21.716C22.5389 21.9716 22.6667 22.2882 22.6667 22.666C22.6667 23.0438 22.5389 23.3605 22.2833 23.616C22.0278 23.8716 21.7111 23.9994 21.3333 23.9994Z" fill="#00214A"/>
</svg>
