<svg width="100" height="100" viewBox="0 0 100 100" fill="none" xmlns="http://www.w3.org/2000/svg">
<path d="M27.0833 45.832L50 8.33203L72.9167 45.832H27.0833ZM72.9167 91.6654C67.7083 91.6654 63.2812 89.8425 59.6354 86.1966C55.9896 82.5508 54.1667 78.1237 54.1667 72.9154C54.1667 67.707 55.9896 63.2799 59.6354 59.6341C63.2812 55.9883 67.7083 54.1654 72.9167 54.1654C78.125 54.1654 82.5521 55.9883 86.1979 59.6341C89.8438 63.2799 91.6667 67.707 91.6667 72.9154C91.6667 78.1237 89.8438 82.5508 86.1979 86.1966C82.5521 89.8425 78.125 91.6654 72.9167 91.6654ZM12.5 89.582V56.2487H45.8333V89.582H12.5ZM72.9167 83.332C75.8333 83.332 78.2986 82.3251 80.3125 80.3112C82.3264 78.2973 83.3333 75.832 83.3333 72.9154C83.3333 69.9987 82.3264 67.5334 80.3125 65.5195C78.2986 63.5056 75.8333 62.4987 72.9167 62.4987C70 62.4987 67.5347 63.5056 65.5208 65.5195C63.5069 67.5334 62.5 69.9987 62.5 72.9154C62.5 75.832 63.5069 78.2973 65.5208 80.3112C67.5347 82.3251 70 83.332 72.9167 83.332ZM20.8333 81.2487H37.5V64.582H20.8333V81.2487ZM41.875 37.4987H58.125L50 24.3737L41.875 37.4987Z" fill="#FF9700"/>
</svg>
