<svg width="20" height="20" viewBox="0 0 20 20" fill="none" xmlns="http://www.w3.org/2000/svg">
<path d="M9.99998 13.3333C11.0416 13.3333 11.9271 12.9687 12.6562 12.2395C13.3854 11.5103 13.75 10.6249 13.75 9.58325C13.75 8.54159 13.3854 7.65617 12.6562 6.927C11.9271 6.19784 11.0416 5.83325 9.99998 5.83325C8.95831 5.83325 8.0729 6.19784 7.34373 6.927C6.61456 7.65617 6.24998 8.54159 6.24998 9.58325C6.24998 10.6249 6.61456 11.5103 7.34373 12.2395C8.0729 12.9687 8.95831 13.3333 9.99998 13.3333ZM9.99998 11.8333C9.37498 11.8333 8.84373 11.6145 8.40623 11.177C7.96873 10.7395 7.74998 10.2083 7.74998 9.58325C7.74998 8.95825 7.96873 8.427 8.40623 7.9895C8.84373 7.552 9.37498 7.33325 9.99998 7.33325C10.625 7.33325 11.1562 7.552 11.5937 7.9895C12.0312 8.427 12.25 8.95825 12.25 9.58325C12.25 10.2083 12.0312 10.7395 11.5937 11.177C11.1562 11.6145 10.625 11.8333 9.99998 11.8333ZM9.99998 15.8333C7.9722 15.8333 6.12498 15.2673 4.45831 14.1353C2.79165 13.0034 1.58331 11.486 0.833313 9.58325C1.58331 7.68047 2.79165 6.16311 4.45831 5.03117C6.12498 3.89922 7.9722 3.33325 9.99998 3.33325C12.0278 3.33325 13.875 3.89922 15.5416 5.03117C17.2083 6.16311 18.4166 7.68047 19.1666 9.58325C18.4166 11.486 17.2083 13.0034 15.5416 14.1353C13.875 15.2673 12.0278 15.8333 9.99998 15.8333ZM9.99998 14.1666C11.5694 14.1666 13.0104 13.7534 14.3229 12.927C15.6354 12.1006 16.6389 10.986 17.3333 9.58325C16.6389 8.18047 15.6354 7.06589 14.3229 6.2395C13.0104 5.41311 11.5694 4.99992 9.99998 4.99992C8.43054 4.99992 6.98956 5.41311 5.67706 6.2395C4.36456 7.06589 3.36109 8.18047 2.66665 9.58325C3.36109 10.986 4.36456 12.1006 5.67706 12.927C6.98956 13.7534 8.43054 14.1666 9.99998 14.1666Z" fill="#212529"/>
</svg>
