<svg width="100" height="100" viewBox="0 0 100 100" fill="none" xmlns="http://www.w3.org/2000/svg">
<path d="M16.6654 83.3346C14.3737 83.3346 12.4119 82.5187 10.7799 80.8867C9.148 79.2548 8.33203 77.293 8.33203 75.0013V25.0013C8.33203 22.7096 9.148 20.7478 10.7799 19.1159C12.4119 17.4839 14.3737 16.668 16.6654 16.668H41.6654L49.9987 25.0013H83.332C85.6237 25.0013 87.5855 25.8173 89.2175 27.4492C90.8494 29.0812 91.6654 31.043 91.6654 33.3346H46.5612L38.2279 25.0013H16.6654V75.0013L26.6654 41.668H97.9154L87.1862 77.3971C86.6306 79.2027 85.6063 80.6437 84.1133 81.72C82.6202 82.7964 80.9709 83.3346 79.1654 83.3346H16.6654ZM25.4154 75.0013H79.1654L86.6654 50.0013H32.9154L25.4154 75.0013Z" fill="#FF9700"/>
</svg>
