<svg width="20" height="19" viewBox="0 0 20 19" fill="none" xmlns="http://www.w3.org/2000/svg">
<path d="M18.1225 16.9978H1.87737C0.840178 16.9978 0.00292969 16.1605 0.00292969 15.1233V3.87669C0.00292969 2.8395 0.840178 2.00225 1.87737 2.00225H18.1225C19.1597 2.00225 19.9969 2.8395 19.9969 3.87669V15.1233C19.9969 16.1605 19.1597 16.9978 18.1225 16.9978ZM1.87737 3.25188C1.52747 3.25188 1.25255 3.52679 1.25255 3.87669V15.1233C1.25255 15.4732 1.52747 15.7481 1.87737 15.7481H18.1225C18.4724 15.7481 18.7473 15.4732 18.7473 15.1233V3.87669C18.7473 3.52679 18.4724 3.25188 18.1225 3.25188H1.87737Z" fill="#FF8200"/>
<path d="M10 11.9493C9.12527 11.9493 8.32551 11.5994 7.72569 10.9621L1.16516 3.98915C0.927732 3.73923 0.940228 3.33935 1.19015 3.10192C1.44008 2.86449 1.83996 2.87699 2.07739 3.12691L8.63792 10.0998C9.3502 10.8621 10.6498 10.8621 11.3621 10.0998L17.9226 3.13941C18.1601 2.88948 18.5599 2.87699 18.8099 3.11442C19.0598 3.35185 19.0723 3.75173 18.8349 4.00165L12.2743 10.9746C11.6745 11.6119 10.8747 11.9618 10 11.9618V11.9493Z" fill="#FF8200"/>
</svg>
