<svg width="25" height="26" viewBox="0 0 25 26" fill="none" xmlns="http://www.w3.org/2000/svg">
<path d="M14.5846 14.0762C13.7166 14.0762 12.9787 13.7724 12.3711 13.1647C11.7635 12.5571 11.4596 11.8192 11.4596 10.9512C11.4596 10.0831 11.7635 9.34527 12.3711 8.73763C12.9787 8.12999 13.7166 7.82617 14.5846 7.82617C15.4527 7.82617 16.1905 8.12999 16.7982 8.73763C17.4058 9.34527 17.7096 10.0831 17.7096 10.9512C17.7096 11.8192 17.4058 12.5571 16.7982 13.1647C16.1905 13.7724 15.4527 14.0762 14.5846 14.0762ZM7.29297 17.2012C6.72005 17.2012 6.2296 16.9972 5.82161 16.5892C5.41363 16.1812 5.20964 15.6908 5.20964 15.1178V6.78451C5.20964 6.21159 5.41363 5.72114 5.82161 5.31315C6.2296 4.90516 6.72005 4.70117 7.29297 4.70117H21.8763C22.4492 4.70117 22.9397 4.90516 23.3477 5.31315C23.7556 5.72114 23.9596 6.21159 23.9596 6.78451V15.1178C23.9596 15.6908 23.7556 16.1812 23.3477 16.5892C22.9397 16.9972 22.4492 17.2012 21.8763 17.2012H7.29297ZM9.3763 15.1178H19.793C19.793 14.5449 19.997 14.0545 20.4049 13.6465C20.8129 13.2385 21.3034 13.0345 21.8763 13.0345V8.86784C21.3034 8.86784 20.8129 8.66385 20.4049 8.25586C19.997 7.84787 19.793 7.35742 19.793 6.78451H9.3763C9.3763 7.35742 9.17231 7.84787 8.76432 8.25586C8.35634 8.66385 7.86589 8.86784 7.29297 8.86784V13.0345C7.86589 13.0345 8.35634 13.2385 8.76432 13.6465C9.17231 14.0545 9.3763 14.5449 9.3763 15.1178ZM20.8346 21.3678H3.1263C2.55339 21.3678 2.06293 21.1638 1.65495 20.7559C1.24696 20.3479 1.04297 19.8574 1.04297 19.2845V7.82617H3.1263V19.2845H20.8346V21.3678Z" fill="#FF9700"/>
</svg>
