<svg width="25" height="25" viewBox="0 0 25 25" fill="none" xmlns="http://www.w3.org/2000/svg">
<path fill-rule="evenodd" clip-rule="evenodd" d="M5.97198 2.12812C7.23969 0.867707 9.32719 1.09167 10.3887 2.51042L11.7032 4.26458C12.5678 5.41875 12.4907 7.03125 11.4647 8.05104L11.2168 8.29896C11.1888 8.40305 11.1859 8.5123 11.2084 8.61771C11.2741 9.04271 11.6293 9.94271 13.1168 11.4219C14.6043 12.901 15.5105 13.2552 15.9418 13.3219C16.0503 13.345 16.1628 13.3417 16.2699 13.3125L16.6949 12.8896C17.6074 11.9833 19.0074 11.8135 20.1366 12.4271L22.1262 13.5104C23.8314 14.4354 24.2616 16.7521 22.8657 18.1406L21.3855 19.6115C20.9189 20.075 20.2918 20.4615 19.5272 20.5333C17.6418 20.7094 13.2491 20.4844 8.63136 15.8937C4.32198 11.6083 3.4949 7.87083 3.38969 6.02917C3.33761 5.09792 3.77719 4.31042 4.33761 3.75417L5.97198 2.12812ZM9.13865 3.44687C8.61053 2.74167 7.62719 2.68542 7.07303 3.23646L5.43761 4.86146C5.09386 5.20312 4.92928 5.58021 4.95011 5.94062C5.03344 7.40417 5.70011 10.776 9.73344 14.7865C13.9647 18.9927 17.872 19.1187 19.3824 18.9771C19.6907 18.949 19.997 18.7885 20.2834 18.5042L21.7626 17.0323C22.3647 16.4344 22.2324 15.3448 21.3803 14.8823L19.3907 13.8C18.8407 13.5021 18.197 13.6 17.797 13.9979L17.323 14.4698L16.7709 13.9156C17.323 14.4698 17.322 14.4708 17.3209 14.4708L17.3199 14.4729L17.3168 14.476L17.3095 14.4823L17.2939 14.4969C17.2496 14.5373 17.2022 14.5742 17.1522 14.6073C17.0689 14.6625 16.9584 14.724 16.8199 14.775C16.5386 14.8802 16.1657 14.9365 15.7053 14.8656C14.8022 14.7271 13.6053 14.1115 12.0147 12.5302C10.4251 10.949 9.80428 9.75937 9.66469 8.85729C9.59282 8.39687 9.65011 8.02396 9.75636 7.74271C9.81528 7.58465 9.89896 7.43697 10.0043 7.30521L10.0376 7.26875L10.0522 7.25312L10.0584 7.24687L10.0616 7.24375L10.0637 7.24167L10.3637 6.94375C10.8095 6.49896 10.872 5.7625 10.4522 5.20104L9.13865 3.44687Z" fill="#FF8200"/>
</svg>
