<svg width="25" height="26" viewBox="0 0 25 26" fill="none" xmlns="http://www.w3.org/2000/svg">
<path d="M5.20964 22.4102C4.9145 22.4102 4.6671 22.3103 4.46745 22.1107C4.2678 21.911 4.16797 21.6636 4.16797 21.3685V20.3268C3.29991 20.3268 2.56207 20.023 1.95443 19.4154C1.34679 18.8077 1.04297 18.0699 1.04297 17.2018V11.9935C1.04297 11.1254 1.34679 10.3876 1.95443 9.77995C2.56207 9.17231 3.29991 8.86849 4.16797 8.86849V6.78516C4.16797 5.9171 4.47179 5.17925 5.07943 4.57161C5.68707 3.96398 6.42491 3.66016 7.29297 3.66016H17.7096C18.5777 3.66016 19.3155 3.96398 19.9232 4.57161C20.5308 5.17925 20.8346 5.9171 20.8346 6.78516V8.86849C21.7027 8.86849 22.4405 9.17231 23.0482 9.77995C23.6558 10.3876 23.9596 11.1254 23.9596 11.9935V17.2018C23.9596 18.0699 23.6558 18.8077 23.0482 19.4154C22.4405 20.023 21.7027 20.3268 20.8346 20.3268V21.3685C20.8346 21.6636 20.7348 21.911 20.5352 22.1107C20.3355 22.3103 20.0881 22.4102 19.793 22.4102C19.4978 22.4102 19.2504 22.3103 19.0508 22.1107C18.8511 21.911 18.7513 21.6636 18.7513 21.3685V20.3268H6.2513V21.3685C6.2513 21.6636 6.15148 21.911 5.95182 22.1107C5.75217 22.3103 5.50477 22.4102 5.20964 22.4102ZM4.16797 18.2435H20.8346C21.1298 18.2435 21.3772 18.1437 21.5768 17.944C21.7765 17.7444 21.8763 17.497 21.8763 17.2018V11.9935C21.8763 11.6984 21.7765 11.451 21.5768 11.2513C21.3772 11.0516 21.1298 10.9518 20.8346 10.9518C20.5395 10.9518 20.2921 11.0516 20.0924 11.2513C19.8928 11.451 19.793 11.6984 19.793 11.9935V16.1602H5.20964V11.9935C5.20964 11.6984 5.10981 11.451 4.91016 11.2513C4.7105 11.0516 4.46311 10.9518 4.16797 10.9518C3.87283 10.9518 3.62543 11.0516 3.42578 11.2513C3.22613 11.451 3.1263 11.6984 3.1263 11.9935V17.2018C3.1263 17.497 3.22613 17.7444 3.42578 17.944C3.62543 18.1437 3.87283 18.2435 4.16797 18.2435ZM7.29297 14.0768H17.7096V11.9935C17.7096 11.5247 17.8051 11.0994 17.9961 10.7174C18.1871 10.3355 18.4388 9.99696 18.7513 9.70182V6.78516C18.7513 6.49002 18.6515 6.24262 18.4518 6.04297C18.2522 5.84332 18.0048 5.74349 17.7096 5.74349H7.29297C6.99783 5.74349 6.75043 5.84332 6.55078 6.04297C6.35113 6.24262 6.2513 6.49002 6.2513 6.78516V9.70182C6.5638 9.99696 6.81554 10.3355 7.00651 10.7174C7.19748 11.0994 7.29297 11.5247 7.29297 11.9935V14.0768Z" fill="#FF9700"/>
</svg>
