<svg width="32" height="30" viewBox="0 0 32 30" fill="none" xmlns="http://www.w3.org/2000/svg">
<g clip-path="url(#clip0_134_6966)">
<mask id="mask0_134_6966" style="mask-type:luminance" maskUnits="userSpaceOnUse" x="0" y="0" width="32" height="30">
<path d="M0 0.910156H32V29.6025H0V0.910156Z" fill="white"/>
</mask>
<g mask="url(#mask0_134_6966)">
<path fill-rule="evenodd" clip-rule="evenodd" d="M24.822 12.2611C26.0149 12.526 27.0745 13.1414 27.8317 14.0092C28.589 14.877 29.0003 15.9472 29 17.0491V17.4974C29 18.8054 28.4205 20.0597 27.3891 20.9845C26.3576 21.9094 24.9587 22.4289 23.5 22.4289H23C21.5732 22.4301 20.2019 21.9335 19.1762 21.0443C18.1504 20.155 17.5507 18.9428 17.504 17.6642V17.6588H17.5V17.0491C17.5 16.8136 17.518 16.5829 17.554 16.3569C17.594 15.8883 17.654 15.428 17.734 14.9761C17.9449 13.7922 18.3205 12.6367 18.852 11.5366C19.8049 9.56587 21.2911 7.83942 23.176 6.51367L23.372 6.37738C23.4548 6.32087 23.5559 6.29003 23.66 6.28951C24.032 6.28951 24.272 6.65175 24.1 6.94764C23.9496 7.20478 23.803 7.46363 23.66 7.72413C23.355 8.28502 23.0682 8.85373 22.8 9.42953C22.3661 10.352 21.9941 11.297 21.686 12.2593L21.794 12.236C22.19 12.1575 22.5944 12.1178 23 12.1176H23.5C23.9573 12.1188 24.398 12.1667 24.822 12.2611ZM25.92 9.74156C27.6765 10.2093 29.2174 11.1735 30.313 12.4903C31.4087 13.8072 32.0004 15.4062 32 17.0491V17.4974C32 19.5188 31.1045 21.4573 29.5104 22.8866C27.9163 24.3159 25.7543 25.1188 23.5 25.1188H23C21.6227 25.1191 20.266 24.8192 19.0466 24.245C17.8272 23.6709 16.7817 22.8396 16 21.8228C15.2183 22.8396 14.1728 23.6709 12.9534 24.245C11.734 24.8192 10.3773 25.1191 9 25.1188H8.5C6.27515 25.1192 4.1388 24.3375 2.5496 22.9414C0.960389 21.5453 0.0450205 19.6461 0 17.6517L0 17.0491C0 16.7204 0.0233333 16.3958 0.07 16.0754C0.484 11.377 2.786 7.17001 7.046 4.2416C7.65294 3.82529 8.39583 3.59969 9.16 3.59961C11.842 3.59961 13.452 6.15502 12.256 8.19755C12.034 8.57593 11.736 9.10853 11.42 9.73976C12.996 10.1594 14.382 10.9771 15.43 12.0656C16.5132 8.95151 18.6508 6.21698 21.546 4.2416C22.1529 3.82529 22.8958 3.59969 23.66 3.59961C26.342 3.59961 27.952 6.15502 26.756 8.19755C26.534 8.57593 26.236 9.10853 25.92 9.73976M10.32 12.2611C9.88727 12.1663 9.44346 12.1181 8.998 12.1176H8.498C8.05529 12.1181 7.61421 12.1657 7.184 12.2593C7.5485 11.117 8.00298 9.99942 8.544 8.91486C8.87116 8.24863 9.22336 7.59252 9.6 6.94764C9.64028 6.87945 9.66024 6.80309 9.65796 6.72595C9.65568 6.64881 9.63124 6.57351 9.58699 6.50732C9.54274 6.44114 9.48019 6.38632 9.40538 6.34816C9.33058 6.31 9.24606 6.2898 9.16 6.28951C9.05591 6.29003 8.95483 6.32087 8.872 6.37738C8.20872 6.83741 7.58681 7.34347 7.012 7.8909C5.83147 9.02865 4.8897 10.3481 4.232 11.7859C3.76372 12.8112 3.42949 13.8818 3.236 14.9761C3.15333 15.428 3.09267 15.8883 3.054 16.3569C3.01941 16.5864 3.00137 16.8176 3 17.0491V17.657H3.002V17.6642C3.04876 18.9432 3.64871 20.1556 4.67487 21.0449C5.70103 21.9342 7.07287 22.4306 8.5 22.4289H9.002C10.4607 22.4289 11.8596 21.9094 12.8911 20.9845C13.9225 20.0597 14.502 18.8054 14.502 17.4974V17.0491C14.502 14.7358 12.722 12.7919 10.324 12.2611" fill="#00214A"/>
</g>
</g>
<defs>
<clipPath id="clip0_134_6966">
<rect width="32" height="28.6923" fill="white" transform="translate(0 0.910156)"/>
</clipPath>
</defs>
</svg>
