<svg width="32" height="30" viewBox="0 0 32 30" fill="none" xmlns="http://www.w3.org/2000/svg">
<g clip-path="url(#clip0_134_6973)">
<mask id="mask0_134_6973" style="mask-type:luminance" maskUnits="userSpaceOnUse" x="0" y="0" width="32" height="30">
<path d="M32 29.5137L0 29.5137L0 0.821363L32 0.821363L32 29.5137Z" fill="white"/>
</mask>
<g mask="url(#mask0_134_6973)">
<path fill-rule="evenodd" clip-rule="evenodd" d="M7.178 18.1627C5.98512 17.8979 4.92554 17.2824 4.16828 16.4146C3.41102 15.5468 2.99972 14.4766 3 13.3747V12.9264C3 11.6185 3.57946 10.3641 4.61091 9.43929C5.64236 8.51446 7.04131 7.99489 8.5 7.99489H9C10.4268 7.99374 11.7981 8.49032 12.8238 9.37957C13.8496 10.2688 14.4493 11.481 14.496 12.7596V12.765H14.5V13.3747C14.5 13.6102 14.482 13.8409 14.446 14.0669C14.406 14.5355 14.346 14.9958 14.266 15.4477C14.0551 16.6316 13.6795 17.7871 13.148 18.8872C12.1951 20.858 10.7089 22.5844 8.824 23.9102L8.628 24.0464C8.54517 24.103 8.44409 24.1338 8.34 24.1343C7.968 24.1343 7.728 23.7721 7.9 23.4762C8.05035 23.219 8.19703 22.9602 8.34 22.6997C8.64499 22.1388 8.93178 21.5701 9.2 20.9943C9.63393 20.0718 10.0059 19.1269 10.314 18.1645L10.206 18.1878C9.80997 18.2663 9.40559 18.306 9 18.3062H8.5C8.04267 18.305 7.602 18.2572 7.178 18.1627ZM6.08 20.6823C4.32351 20.2145 2.78262 19.2504 1.68698 17.9335C0.591343 16.6167 -0.00038147 15.0176 0 13.3747V12.9264C0 10.9051 0.895533 8.96653 2.48959 7.53724C4.08365 6.10795 6.24566 5.30499 8.5 5.30499H9C10.3773 5.30477 11.734 5.60465 12.9534 6.17881C14.1728 6.75298 15.2183 7.58423 16 8.60102C16.7817 7.58423 17.8272 6.75298 19.0466 6.17881C20.266 5.60465 21.6227 5.30477 23 5.30499H23.5C25.7249 5.30458 27.8612 6.08634 29.4504 7.48244C31.0396 8.87855 31.955 10.7777 32 12.7722V13.3747C32 13.7035 31.9767 14.028 31.93 14.3484C31.516 19.0468 29.214 23.2538 24.954 26.1822C24.3471 26.5985 23.6042 26.8241 22.84 26.8242C20.158 26.8242 18.548 24.2688 19.744 22.2263C19.966 21.8479 20.264 21.3153 20.58 20.6841C19.004 20.2644 17.618 19.4467 16.57 18.3582C15.4868 21.4723 13.3492 24.2068 10.454 26.1822C9.84706 26.5985 9.10417 26.8241 8.34 26.8242C5.658 26.8242 4.048 24.2688 5.244 22.2263C5.466 21.8479 5.764 21.3153 6.08 20.6841M21.68 18.1627C22.1127 18.2575 22.5565 18.3057 23.002 18.3062H23.502C23.9447 18.3057 24.3858 18.2581 24.816 18.1645C24.4515 19.3068 23.997 20.4244 23.456 21.509C23.1288 22.1752 22.7766 22.8313 22.4 23.4762C22.3597 23.5444 22.3398 23.6207 22.342 23.6979C22.3443 23.775 22.3688 23.8503 22.413 23.9165C22.4573 23.9827 22.5198 24.0375 22.5946 24.0757C22.6694 24.1138 22.7539 24.134 22.84 24.1343C22.9441 24.1338 23.0452 24.103 23.128 24.0464C23.7913 23.5864 24.4132 23.0804 24.988 22.5329C26.1685 21.3952 27.1103 20.0757 27.768 18.6379C28.2363 17.6126 28.5705 16.542 28.764 15.4477C28.8467 14.9958 28.9073 14.5355 28.946 14.0669C28.9806 13.8374 28.9986 13.6062 29 13.3747V12.7668H28.998V12.7596C28.9512 11.4807 28.3513 10.2682 27.3251 9.37894C26.299 8.48965 24.9271 7.99327 23.5 7.99489H22.998C21.5393 7.99489 20.1404 8.51446 19.1089 9.43929C18.0775 10.3641 17.498 11.6185 17.498 12.9264V13.3747C17.498 15.688 19.278 17.6319 21.676 18.1627" fill="#00214A"/>
</g>
</g>
<defs>
<clipPath id="clip0_134_6973">
<rect width="32" height="28.6923" fill="white" transform="matrix(-1 0 0 -1 32 29.5137)"/>
</clipPath>
</defs>
</svg>
