<svg width="50" height="50" viewBox="0 0 50 50" fill="none" xmlns="http://www.w3.org/2000/svg">
<path d="M14.582 39.584V35.4173H29.3737C31.5612 35.4173 33.4622 34.7229 35.0768 33.334C36.6914 31.9451 37.4987 30.209 37.4987 28.1257C37.4987 26.0423 36.6914 24.3062 35.0768 22.9173C33.4622 21.5284 31.5612 20.834 29.3737 20.834H16.2487L21.6654 26.2507L18.7487 29.1673L8.33203 18.7507L18.7487 8.33398L21.6654 11.2507L16.2487 16.6673H29.3737C32.7418 16.6673 35.6324 17.7611 38.0456 19.9486C40.4588 22.1361 41.6654 24.8618 41.6654 28.1257C41.6654 31.3895 40.4588 34.1152 38.0456 36.3027C35.6324 38.4902 32.7418 39.584 29.3737 39.584H14.582Z" fill="#FF9700"/>
</svg>
